# xmcd
#
# Track frame offsets:
#	150
#	15955
#	42972
#
# Disc length: 963 seconds
#
# Revision: 1
# Processed by: cddbd v1.4PL0 Copyright (c) Steve Scherf et al.
# Submitted via: dBpowerAMP V4.0
#
DISCID=1503c103
DTITLE=Mark McGuinn - Mrs. Steven Rudy
DYEAR=1900
DGENRE=Country
TTITLE0=Birgit - Alright
TTITLE1=Birgit - Alright (instrumental)
TTITLE2=DATA
EXTD=CD Single with a mpeg movie
EXTT0=
EXTT1=
EXTT2=
PLAYORDER=
